<?xml version="1.0" encoding="UTF-8"?>
<!-- Generator: Adobe Illustrator 24.0.1, SVG Export Plug-In . SVG Version: 6.00 Build 0)  -->
<svg version="1.1" id="Layer_1" xmlns="http://www.w3.org/2000/svg" xmlns:xlink="http://www.w3.org/1999/xlink" x="0px" y="0px" viewBox="0 0 3500 1000" style="enable-background:new 0 0 3500 1000;" xml:space="preserve">
<style type="text/css">
	.st0{fill:#FFFFFF;}
	.st1{clip-path:url(#SVGID_2_);}
	.st2{fill:#CC1B2B;}
</style>
<g id="Layer_1_1_">
	<path class="st0" d="M2437.8,516.6c0,8.6-1.3,16.9-3.7,24.9c-2.3,7.8-5.8,14.9-10.3,21.2s-10,11.2-16.4,14.9   c-6.4,3.7-13.6,5.5-21.5,5.6c-10.9,0-19.5-3.3-25.9-10.1c-6.2-6.7-9.5-17-9.6-30.5c0.1-9.5,1.9-17.5,5.5-23.9   c3.7-6.4,8.8-11.2,15.2-14.5c6.4-3.2,13.8-4.8,22.4-4.8c5.8,0,11.1,0.1,15.7,0.2c4.7,0.2,9.2,0.5,13.7,1c4.5,0.6,9.5,1.2,14.9,2.1   V516.6z M2404.8,328.7c-14.4,0-27.9,0.9-40.5,2.5c-12.6,1.7-24.7,4.1-36.3,7.3c-11.5,3.1-23.1,7-34.6,11.5l9.5,71   c12.9-6.6,25.9-11.7,39-15.5c13.1-3.8,26.9-5.7,41.4-5.8c18,0.1,31.7,4,40.7,11.5c9.2,7.5,13.7,17.7,13.7,30.5v6.5h-1.3   c-7.1-1-15.1-1.7-23.9-2.4c-9-0.5-18-0.9-27.3-0.9c-17.6,0-34.1,2.4-49.4,7c-15.2,4.7-28.5,11.5-40,20.6   c-11.4,9.1-20.4,20.2-26.8,33.5c-6.4,13.2-9.7,28.4-9.8,45.5c0.1,14.1,2.1,26.6,6,37.7c3.8,11.1,9.1,20.7,15.6,28.8   c6.5,8.2,13.9,15,21.9,20.2c8.1,5.4,16.4,9.4,25,12.1c8.4,2.6,16.7,3.9,24.5,3.9c13,0,24.4-1.7,34.2-5c9.8-3.3,18.8-8.4,26.8-15.1   c8-6.6,15.7-15,23.2-25.1h1.3l1.3,38.7h83.6V440.4c-0.1-23.6-4.9-43.6-14.3-60.3c-9.5-16.6-23-29.3-40.5-38.1   C2450.2,333.2,2429.2,328.8,2404.8,328.7z M2137.7,654.1c10.9,0,21.3-0.4,31.3-1.3c9.8-0.8,19.5-2,29.1-3.7   c9.6-1.6,19.5-3.6,29.5-6l-9.5-71c-12.2,3.9-24.1,6.7-35.6,8.4c-11.5,1.7-23.4,2.6-36,2.6c-15.7-0.1-28.9-2.8-39.8-8.2   c-11-5.3-19.7-12.4-26.5-21.2c-6.6-8.8-11.7-18.7-14.7-29.5c-3-10.8-4.5-21.7-4.5-32.8c0-11.1,1.5-22.1,4.5-32.8   c3.1-10.9,8.1-20.7,14.7-29.5c6.7-8.8,15.5-15.9,26.5-21.2c10.9-5.4,24.2-8.1,39.8-8.2c9.6,0,18.4,0.4,26.4,1.3   c8,1,15.8,2.4,23.4,4.2c7.6,1.9,15.7,4.4,24.3,7.4l9.5-71c-13.3-4.5-27.5-7.7-43-9.9c-15.3-2.1-31.7-3-49.5-3   c-25.4,0.1-48.4,3.9-68.9,11.5c-20.5,7.6-38.2,18.7-53,33c-14.7,14.3-26.1,31.7-34,51.9c-7.8,20.2-11.8,42.9-11.9,68.2   c0.1,24.6,4.2,46.8,12.2,66.5c8,19.8,19.5,36.7,34.4,50.7c14.9,14,32.5,24.8,53,32.3C2090,650.2,2112.8,654,2137.7,654.1z    M1872.4,315.1c9-0.1,17.1-2.4,24.5-6.8c7.3-4.3,13.2-10.2,17.5-17.8c4.4-7.4,6.7-15.8,6.8-25.2c-0.1-9.2-2.3-17.4-6.8-25   c-4.3-7.4-10.2-13.5-17.5-17.9c-7.4-4.6-15.5-6.8-24.5-6.9c-9.2,0.1-17.4,2.4-24.7,6.9c-7.4,4.4-13.2,10.4-17.4,17.9   c-4.3,7.5-6.5,15.8-6.7,25c0.1,9.4,2.3,17.7,6.7,25.2c4.2,7.5,10,13.5,17.4,17.8C1855,312.8,1863.2,315,1872.4,315.1z M1830,647.7   h84.8V335.2H1830V647.7z M3273.3,456.3c-10,0-18.6,1.2-25.9,3.7c-7.3,2.4-13.7,6.2-19.3,11.2c-5.6,5-10.6,11.4-15.3,19.2h-0.7   c-4.7-11.1-11.2-19.5-19.6-25.3c-8.4-5.8-19.2-8.7-32.4-8.8c-8.2,0-15.5,1.2-21.7,3.6c-6.3,2.3-11.9,5.7-16.7,10.2   c-4.8,4.5-9.2,10-12.9,16.5h-0.7l-0.8-26.3h-50.1v187.5h50.9v-98.4c0-10.1,1.2-19,3.6-26.5c2.4-7.5,6.1-13.4,10.8-17.6   c4.7-4.1,10.6-6.2,17.6-6.3c9.6,0,16.7,2.7,21.1,8c4.4,5.3,6.6,13.1,6.6,23.4v117.4h50.9v-98.4c0.1-11.1,1.5-20.4,4.4-27.9   c3-7.4,7-13.1,12-16.9c5.1-3.8,10.9-5.6,17.3-5.6c9.3,0.1,16.1,2.9,20.5,8.4c4.4,5.5,6.6,13.2,6.5,23v117.4h50.9V526.8   c0-9.9-1.1-19-3.5-27.5c-2.3-8.5-5.9-16-10.6-22.4c-4.7-6.5-10.6-11.5-17.8-15.1C3291.3,458.1,3282.9,456.3,3273.3,456.3z    M2931.2,608.9c-8.6,0-16.1-2.2-22.6-6.6c-6.4-4.3-11.5-10.5-15.2-18.7c-3.7-8.2-5.5-18.2-5.6-29.8c0.1-11.7,1.9-21.5,5.6-29.8   c3.7-8.2,8.7-14.4,15.2-18.7c6.4-4.3,14-6.5,22.6-6.5c8.5,0,16.1,2.2,22.5,6.5c6.4,4.3,11.5,10.5,15.2,18.7   c3.6,8.2,5.5,18.1,5.6,29.8c0,11.6-1.9,21.6-5.6,29.8c-3.7,8.2-8.8,14.4-15.2,18.7C2947.3,606.7,2939.7,608.9,2931.2,608.9z    M2931.2,456.3c-14.6,0.1-27.9,2.6-39.8,7.6c-11.9,4.9-22.3,11.9-31,20.8c-8.6,8.8-15.4,19.2-20,31c-4.7,11.7-7.1,24.5-7.2,38.3   c0.1,13.8,2.5,26.5,7.2,38.3c4.7,11.8,11.4,22.1,20,31c8.7,8.9,19,15.8,31,20.8c12,5,25.3,7.5,39.8,7.5c14.6-0.1,27.9-2.6,39.8-7.5   c12-5,22.3-11.9,31-20.8c8.7-8.9,15.4-19.2,20.1-31c4.7-11.8,7.1-24.5,7.2-38.3c-0.1-13.7-2.4-26.5-7.2-38.3   c-4.7-11.8-11.4-22.2-20.1-31c-8.6-8.9-19-15.8-31-20.8C2959,458.9,2945.7,456.3,2931.2,456.3z M2763.7,651.5   c6.6,0,12.8-0.2,18.8-0.8c5.9-0.5,11.7-1.2,17.5-2.2c5.7-0.9,11.7-2.2,17.7-3.6l-5.7-42.6c-7.3,2.3-14.4,4-21.3,5   c-6.9,1-14,1.5-21.6,1.5c-9.4-0.1-17.3-1.7-23.9-4.9c-6.5-3.1-11.8-7.4-15.9-12.7c-4-5.3-7-11.2-8.8-17.6   c-1.8-6.5-2.7-13.1-2.7-19.7c0-6.6,0.9-13.2,2.7-19.7c1.8-6.5,4.8-12.4,8.8-17.7c4.1-5.3,9.3-9.6,15.9-12.7   c6.5-3.2,14.5-4.8,23.9-4.9c5.8,0,11,0.3,15.8,0.8c4.8,0.6,9.5,1.4,14.1,2.5c4.6,1.2,9.4,2.6,14.6,4.5l5.7-42.6   c-8-2.7-16.5-4.6-25.8-5.9c-9.2-1.2-19.1-1.8-29.7-1.8c-15.2,0.1-29,2.3-41.3,6.9c-12.3,4.6-22.9,11.2-31.8,19.8   c-8.8,8.6-15.7,19-20.4,31.1c-4.7,12.1-7.1,25.8-7.1,40.9c0.1,14.8,2.5,28.1,7.3,39.9c4.8,11.9,11.7,22,20.7,30.4   c8.9,8.4,19.5,14.9,31.8,19.4C2735.1,649.2,2748.8,651.5,2763.7,651.5z M2593.8,590.3c-5.6,0.1-10.7,1.4-15.2,4.1   c-4.5,2.7-8.1,6.4-10.8,11c-2.7,4.6-4,9.8-4.1,15.5c0.1,5.8,1.4,11,4.1,15.5c2.7,4.6,6.3,8.3,10.8,11c4.5,2.7,9.6,4.1,15.2,4.1   c5.6-0.1,10.7-1.4,15.2-4.1c4.5-2.7,8.1-6.4,10.7-11c2.7-4.5,4-9.7,4.1-15.5c-0.1-5.8-1.4-10.9-4.1-15.5c-2.6-4.6-6.3-8.3-10.7-11   C2604.5,591.8,2599.4,590.4,2593.8,590.3z M1376,332.2c0.1-24.6,5.3-45.6,15.3-62.9c10-17.4,24.4-30.7,42.9-39.9   c18.6-9.2,40.5-13.8,66-13.9c11.1,0,21,0.4,29.6,1.2c8.6,0.8,15.9,1.8,21.6,3l-9.5,66.9c-4.4-1.2-9.2-2.2-14.3-3   c-5.1-0.8-10.7-1.2-16.7-1.2c-11.4,0-20.8,2-28.2,5.9c-7.4,4-12.9,9.3-16.5,16.3c-3.6,7-5.4,15.2-5.4,24.6v23.7h73.4v66.9h-73.4   v227.3H1376V419.7h-53.2v-66.9h53.2V332.2z M1086.5,457.7c2.4-7.1,4.5-12.6,6.1-16.6c1.5-4,2.3-6,2.3-6.1   c7.7-22,14.6-43.4,20.5-64.2c5.9-21,10.9-42.4,15.1-64.3h1.4c4.5,21.8,9.6,43.3,15.5,64.3c5.8,20.8,12.4,42.3,20.1,64.2l7.7,22.8   H1086.5z M1338.7,647.7L1182,216h-94.1L929.1,647.7h91.9l1.7-4.8c2.4-7.1,5.7-16.5,9.9-28.3c4.1-11.8,8.6-24.9,13.6-39.4   c5-14.4,10.1-29,15.2-43.9h138.7l39.7,116.4H1338.7z M1774.9,328.7c-14.1,0.1-27,2.6-38.5,7.5c-11.6,5-21.7,11.7-30.6,20.2   c-8.7,8.5-16.1,18.2-22,29.1h-1.3l-1.3-50.3h-83.6v312.5h84.8V506.9c0-23.6,3.3-42.5,10-56.8c6.7-14.3,16.9-25,30.6-31.9   c13.6-6.9,30.9-10.9,51.8-12V328.7"/>
	<g>
		<defs>
			<rect id="SVGID_1_" x="169.7" y="68" width="3160.5" height="864"/>
		</defs>
		<clipPath id="SVGID_2_">
			<use xlink:href="#SVGID_1_" style="overflow:visible;"/>
		</clipPath>
		<g class="st1">
			<path class="st2" d="M476.6,68.1c4.6,0.9,49.1-3.9,31.6,14c7,17.8-0.4,23.4,12.9,31c10.8,6.1,14.8,2.3,14.8,15.7     c24.9-2.1,21.8-4.2,37.9,11.8c7.8,7.7,17.3,11.6,28.4,11.6c18.7-31.4,65.2-37.1,55.3,4.7h16.6c0-22.9,36.7-11.7,56.6-11.7     c17.4,15.5,36.3,35.2,50.6,57c10.3,15.7,12.7,31.3,19.5,44.4c13.4,25.9,23.9,18.8,19.9,55.1c20.3,9.8,19.6,10.3,24.9,32.7     c17,18.6,39.5,38,67.5,57.9c10.2,7.3,18.8-0.5,37.7-5.5c15.4-4,18.8-6.5,21.8,4.5c2.1,8-1.2,12.5-4.2,20.1c0,7.6,2.2,9.3-5.5,9.3     c0,4.5,2.4,11.7-2.8,11.7c0,0.1,0,0.2-0.1,0.2c0,0,0,0.1,0,0.1c0,0,0,0.1,0,0.1c0,0.1,0,0.1,0,0.2c0,0,0,0,0,0     c0,0.1,0,0.1-0.1,0.2c0,0,0,0.1,0,0.1c0,0,0,0.1,0,0.1c0,0,0,0.1-0.1,0.2c0,0,0,0,0,0c0,0.1,0,0.2-0.1,0.2c0,0,0,0,0,0     c0,0.1,0,0.1-0.1,0.2c0,0.1,0,0.1,0,0.2c0,0,0,0,0,0.1c-9,32.3-19.6,42.2-42,68.2c-2.7,0-5.5,0-8.3,0     c-29.4,29.8-61.6,39.8-61.6,84.9c0,35.1,16,39.8,7.5,82.6c-6.9,34.7-3.4,35.4-30.9,57.6c-13.1,10.6-27,20.3-39.4,22.4     c1.8,9.4,2.7,23.4,2.7,42c-4.4,22.3-9.9,7.4-22.9,20.5c-8.9,8.9-7.7,25.9-16,42.7c-16.8,34.2-56.4,59.2-95.6,65.1     c-9,1.4-18,2.7-27,4c-4.8,0.7-3.8,3-7.6,3c-0.8,0-1.6,0-2.4,0c0,1.4-0.1,2.5-0.2,3.2c-0.5,2.4-2,1.1-6.5,0.4     c-5.3-0.8-10.6-1.6-15.9-2.4c-4.6-0.7-7.3,0.3-9.1-4.3c-1.8-4.6-2.3-4.2-7-5.5c-0.9-0.2-1.9-0.5-2.9-0.8     c-5.2-65.8-34.8-79.4-38.7-154.2c0-3.1-4.2-11.7-12.5-25.7c-8.3-14-12.4-25.7-12.4-35c0-6.2,8.9-13.9,12.4-29.2     c6.7-28.5-60.5-144.8-54.8-175.3c1.8-10.9,7.5-22.8,1.9-29c-5.5-6.2-15.7-7.8-30.4-4.7c-6,0-5,0.8-6.1-4.7     c-0.4-2.2-1-4.2-1.2-6.7c-0.2-2.6-0.5-5.6-2.1-8.9c-5.2-11-6.8-5.5-15-1.6c-8.2,3.9-18.3,5.9-30.5,6c-7.9,0-9.8-4-14.8-4.6     c-4.8-0.6-9.5,8.4-14.5,13.6c-2.8,0-5.5,0-8.3,0c-3.7,0-8.8-1.2-15.2-3.5c-6.4-2.4-11.5-3.5-15.2-3.5     c-41.2,0-17.8,29.9-70.3-10.3c-20-15.3-37.9-36.7-54.1-50.4c-10.6-4.4-47.1-96.6-2.8-84.1c0-3.9,0-7.8,0-11.7     c-5.4-4.6-15.9-42,2.8-42c0-50.4,21.3-76.6,63.6-81.7c19.3-71.6,41-80.3,116.2-84.1c0-11.8,60-15.6,67.8-16.3     C458.7,68.8,446.6,69.8,476.6,68.1z M617.3,335.6h-85.6v200.7c0.1,25.7,4.7,47.6,13.5,65.6c8.8,18,21.3,31.8,37.3,41.3     c16.1,9.4,34.9,14.2,56.5,14.3c21.4-0.1,40.1-4,56.4-11.8c16.2-7.8,30.3-19,42-33.8l1.3,0L740,651h84.3V335.6h-85.6v172     c-0.1,25.5-6.2,44.8-18.1,58.2c-12,13.2-29.4,19.9-52.2,20c-17.3,0-30-5.2-38.5-15.5c-8.4-10.4-12.6-25.9-12.6-46.4L617.3,335.6z     "/>
			<path class="st2" d="M938.9,672c2.7,14.8,5.5,29.5,8.3,44.3c-3.7,0.8-7.4,1.6-11.1,2.3c-2.1,15.8-4.3,31.6-6.5,47.4     c-1.6,12-0.8,9.1-7.7,15.1c-3,2.6-3.4,7.8-5.6,13.4c-1.5,3.7-1,5.7-5,5.7c0,6.8,1.3,7-5.5,7c-1.1,4.6-0.5,11.6-5.5,11.6     c-3.9,5-5.4,7-11.1,9.4c-5.3,4.5-4.8,5-11.1,2.4c-12.9-6.2-19.4-14.8-19.4-25.7c0-8.7-4.3-18.6,5.5-18.6c1.2-9-1.7-21,8.3-21     c1.8-3.1,3.7-6.2,5.5-9.3c-6.8-2.9-19.6-21-5.5-21c0-4.3-2.1-9.3,2.8-9.3c3.3-11.2,4.3-9.4,14-7.5c0.8,0.2,1.7,0.3,2.7,0.5     c0-4.2,4.7-2.3,8.3-2.3c0-5.3-0.2-4.6,4.8-5.7c2.1-0.4,4.2-0.9,6.2-1.3c0-6.8-0.5-6.8,5.2-10.3c5.8-3.7,6.2-4.6,8.6-11.2     c0.8-2.2,1.5-4.3,2.3-6.4c1.1-3.1,2.2-6.3,3.4-9.4H938.9z"/>
		</g>
	</g>
</g>
</svg>